General
Complete name                    : Wristcutters A Love Story (2006).avi
Format                           : AVI
Format/Info                      : Audio Video Interleave
File size                        : 1.70 GiB
Duration                         : 1h 24mn
Overall bit rate                 : 2 875 Kbps
Writing application              : VirtualDubMod 1.5.4.1 (build 2178/release)
Writing library                  : VirtualDubMod build 2178/release

Video
ID                               : 0
Format                           : MPEG-4 Visual
Format profile                   : Advanced Simple@L5
Format settings, BVOP            : Yes
Format settings, QPel            : No
Format settings, GMC             : No warppoints
Format settings, Matrix          : Custom
Codec ID                         : XVID
Codec ID/Hint                    : XviD
Duration                         : 1h 24mn
Bit rate                         : 2 226 Kbps
Width                            : 720 pixels
Height                           : 416 pixels
Display aspect ratio             : 16:9
Frame rate                       : 25.000 fps
Color space                      : YUV
Chroma subsampling               : 4:2:0
Bit depth                        : 8 bits
Scan type                        : Progressive
Bits/(Pixel*Frame)               : 0.297
Stream size                      : 1.31 GiB (77%)
Writing library                  : XviD 1.2.1 (UTC 2008-12-04)

Audio #1
ID                               : 1
Format                           : AC-3
Format/Info                      : Audio Coding 3
Mode extension                   : CM (complete main)
Codec ID                         : 2000
Duration                         : 1h 24mn
Bit rate mode                    : Constant
Bit rate                         : 192 Kbps
Channel(s)                       : 2 channels
Channel positions                : Front: L R
Sampling rate                    : 48.0 KHz
Bit depth                        : 16 bits
Stream size                      : 116 MiB (7%)
Alignment                        : Aligned on interleaves
Interleave, duration             : 96 ms (2.40 video frames)
Interleave, preload duration     : 96 ms
Language                         : English

Audio #2
ID                               : 2
Format                           : AC-3
Format/Info                      : Audio Coding 3
Mode extension                   : CM (complete main)
Codec ID                         : 2000
Duration                         : 1h 24mn
Bit rate mode                    : Constant
Bit rate                         : 448 Kbps
Channel(s)                       : 6 channels
Channel positions                : Front: L C R, Side: L R, LFE
Sampling rate                    : 48.0 KHz
Bit depth                        : 16 bits
Stream size                      : 271 MiB (16%)
Alignment                        : Aligned on interleaves
Interleave, duration             : 96 ms (2.40 video frames)
Interleave, preload duration     : 96 ms
Language                         : English


          ASAD BAIG
       092-321-6252752
eMAIL:mirza_for_world@hotmail.com
       mirza_for_world@yahoo.com